<svg width="26" height="26" viewBox="0 0 26 26" fill="none" xmlns="http://www.w3.org/2000/svg">
<g clip-path="url(#clip0_1640_36232)">
<path d="M17.5703 16.1992C17.2899 16.1992 17.0625 16.4266 17.0625 16.707V20.2109C17.0625 21.611 15.9235 22.75 14.5234 22.75H9.04069C8.76032 22.75 8.53308 22.9771 8.53288 23.2575L8.53216 24.2671L7.32012 23.0551C7.28062 22.9644 7.21551 22.8873 7.13278 22.8331C7.05005 22.7789 6.9533 22.75 6.8544 22.75H3.55469C2.15465 22.75 1.01562 21.611 1.01562 20.2109V12.3906C1.01562 10.9906 2.15465 9.85156 3.55469 9.85156H8.68359C8.96401 9.85156 9.19141 9.62421 9.19141 9.34375C9.19141 9.06329 8.96401 8.83594 8.68359 8.83594H3.55469C1.59463 8.83594 0 10.4306 0 12.3906V20.2109C0 22.171 1.59463 23.7656 3.55469 23.7656H6.59435L8.67999 25.8513C8.75097 25.9223 8.84142 25.9706 8.93989 25.9902C9.03836 26.0098 9.14043 25.9998 9.2332 25.9614C9.32598 25.923 9.4053 25.858 9.46113 25.7745C9.51696 25.6911 9.5468 25.5929 9.54688 25.4925L9.54809 23.7656H14.5234C16.4835 23.7656 18.0781 22.171 18.0781 20.2109V16.707C18.0781 16.4266 17.8507 16.1992 17.5703 16.1992Z" fill="#153F68"/>
<path d="M18.6192 0H17.334C13.2642 0 9.95312 3.31104 9.95312 7.38085C9.95312 11.4507 13.2642 14.7617 17.3339 14.7617H18.6191C19.2544 14.7617 19.8831 14.681 20.4925 14.5215L22.391 16.419C22.4621 16.49 22.5525 16.5383 22.651 16.5579C22.7495 16.5775 22.8516 16.5674 22.9444 16.5289C23.0372 16.4905 23.1165 16.4254 23.1722 16.3419C23.228 16.2584 23.2578 16.1602 23.2578 16.0598V13.1218C24.0616 12.4709 24.7294 11.6486 25.198 10.7299C25.7302 9.68657 26 8.55979 26 7.38085C26 3.31104 22.689 0 18.6192 0ZM22.4444 12.4686C22.3816 12.5159 22.3307 12.5772 22.2956 12.6476C22.2605 12.718 22.2422 12.7956 22.2422 12.8742V14.8344L20.9995 13.5924C20.9343 13.5272 20.8525 13.481 20.763 13.4588C20.6735 13.4365 20.5796 13.4391 20.4914 13.4662C19.887 13.6519 19.2571 13.7461 18.6192 13.7461H17.334C13.8241 13.7461 10.9688 10.8906 10.9688 7.38085C10.9688 3.87105 13.8242 1.01562 17.334 1.01562H18.6192C22.129 1.01562 24.9844 3.87105 24.9844 7.38085C24.9844 9.39844 24.0586 11.2529 22.4444 12.4686Z" fill="#153F68"/>
<path d="M20.2634 5.5565C20.1901 4.4934 19.3331 3.63641 18.27 3.56313C17.6673 3.52175 17.0922 3.72503 16.6519 4.136C16.2178 4.54128 15.9688 5.1142 15.9688 5.70788C15.9688 5.98835 16.1962 6.21569 16.4766 6.21569C16.757 6.21569 16.9844 5.98835 16.9844 5.70788C16.9844 5.39004 17.1125 5.09546 17.3449 4.87847C17.5772 4.66169 17.8808 4.55438 18.2002 4.57642C18.7602 4.61502 19.2116 5.06641 19.2502 5.62638C19.2892 6.19193 18.9181 6.69172 18.368 6.81481C17.9222 6.91454 17.6109 7.3019 17.6109 7.75675V8.97677C17.6109 9.25724 17.8383 9.48458 18.1187 9.48458C18.3992 9.48458 18.6266 9.25724 18.6265 8.97677V7.79733C19.6498 7.55012 20.3363 6.61382 20.2634 5.5565ZM18.4778 10.6265C18.3833 10.532 18.2523 10.4777 18.1187 10.4777C17.9852 10.4777 17.8542 10.532 17.7597 10.6265C17.6648 10.7219 17.6114 10.8509 17.6109 10.9855C17.6109 11.1195 17.6653 11.2506 17.7597 11.345C17.8542 11.4395 17.9852 11.4933 18.1187 11.4933C18.2523 11.4933 18.3833 11.4395 18.4778 11.345C18.5727 11.2494 18.6261 11.1202 18.6266 10.9855C18.6266 10.8519 18.5722 10.7209 18.4778 10.6265ZM13.9648 15.7422H3.25C2.96959 15.7422 2.74219 15.9695 2.74219 16.25C2.74219 16.5304 2.96959 16.7578 3.25 16.7578H13.9648C14.2453 16.7578 14.4727 16.5304 14.4727 16.25C14.4727 15.9695 14.2453 15.7422 13.9648 15.7422ZM14.3238 18.7347C14.2294 18.6402 14.0984 18.5859 13.9648 18.5859C13.8313 18.5859 13.7003 18.6402 13.6058 18.7347C13.5113 18.8291 13.457 18.9602 13.457 19.0937C13.457 19.2273 13.5114 19.3583 13.6058 19.4527C13.7003 19.5472 13.8313 19.6015 13.9648 19.6015C14.0984 19.6015 14.2294 19.5472 14.3238 19.4527C14.4188 19.3574 14.4723 19.2283 14.4727 19.0937C14.4727 18.9602 14.4183 18.8291 14.3238 18.7347ZM11.9675 18.5859H3.25C2.96959 18.5859 2.74219 18.8133 2.74219 19.0937C2.74219 19.3742 2.96959 19.6015 3.25 19.6015H11.9675C12.2479 19.6015 12.4753 19.3742 12.4753 19.0937C12.4753 18.8133 12.2479 18.5859 11.9675 18.5859ZM10.6641 12.8984H3.25C2.96959 12.8984 2.74219 13.1258 2.74219 13.4062C2.74219 13.6867 2.96959 13.914 3.25 13.914H10.6641C10.9445 13.914 11.1719 13.6867 11.1719 13.4062C11.1719 13.1258 10.9445 12.8984 10.6641 12.8984Z" fill="#153F68"/>
</g>
<defs>
<clipPath id="clip0_1640_36232">
<rect width="26" height="26" fill="white"/>
</clipPath>
</defs>
</svg>
