<svg width="19" height="19" viewBox="0 0 19 19" fill="none" xmlns="http://www.w3.org/2000/svg">
<path fill-rule="evenodd" clip-rule="evenodd" d="M2.53469 5.52066L3.34024 6.3262C3.37761 6.36364 3.42199 6.39334 3.47086 6.4136C3.51972 6.43386 3.5721 6.44429 3.62499 6.44429C3.67789 6.44429 3.73027 6.43386 3.77913 6.4136C3.82799 6.39334 3.87238 6.36364 3.90975 6.3262L5.52124 4.71512C5.59461 4.63915 5.63521 4.53741 5.63429 4.43181C5.63337 4.3262 5.59101 4.22518 5.51633 4.15051C5.44166 4.07583 5.34064 4.03347 5.23503 4.03255C5.12943 4.03163 5.02769 4.07223 4.95172 4.1456L3.62499 5.47193L3.10421 4.95114C3.02825 4.87777 2.92651 4.83718 2.8209 4.83809C2.7153 4.83901 2.61428 4.88137 2.5396 4.95605C2.46492 5.03073 2.42256 5.13175 2.42165 5.23735C2.42073 5.34296 2.46133 5.4447 2.53469 5.52066ZM6.84716 4.83313H9.26379C9.37061 4.83313 9.47306 4.7907 9.54859 4.71516C9.62412 4.63963 9.66656 4.53718 9.66656 4.43036C9.66656 4.32354 9.62412 4.22109 9.54859 4.14556C9.47306 4.07002 9.37061 4.02759 9.26379 4.02759H6.84716C6.74034 4.02759 6.63789 4.07002 6.56236 4.14556C6.48683 4.22109 6.44439 4.32354 6.44439 4.43036C6.44439 4.53718 6.48683 4.63963 6.56236 4.71516C6.63789 4.7907 6.74034 4.83313 6.84716 4.83313ZM6.84716 6.44421H12.486C12.5928 6.44421 12.6952 6.40178 12.7708 6.32625C12.8463 6.25071 12.8887 6.14826 12.8887 6.04144C12.8887 5.93462 12.8463 5.83218 12.7708 5.75664C12.6952 5.68111 12.5928 5.63867 12.486 5.63867H6.84716C6.74034 5.63867 6.63789 5.68111 6.56236 5.75664C6.48683 5.83218 6.44439 5.93462 6.44439 6.04144C6.44439 6.14826 6.48683 6.25071 6.56236 6.32625C6.63789 6.40178 6.74034 6.44421 6.84716 6.44421ZM2.53469 9.54837L3.34024 10.3539C3.37761 10.3913 3.42199 10.421 3.47086 10.4413C3.51972 10.4616 3.5721 10.472 3.62499 10.472C3.67789 10.472 3.73027 10.4616 3.77913 10.4413C3.82799 10.421 3.87238 10.3913 3.90975 10.3539L5.52124 8.74283C5.59461 8.66686 5.63521 8.56512 5.63429 8.45952C5.63337 8.35391 5.59101 8.25289 5.51633 8.17822C5.44166 8.10354 5.34064 8.06118 5.23503 8.06026C5.12943 8.05934 5.02769 8.09994 4.95172 8.17331L3.62499 9.49964L3.10421 8.97885C3.02825 8.90548 2.92651 8.86489 2.8209 8.8658C2.7153 8.86672 2.61428 8.90908 2.5396 8.98376C2.46492 9.05844 2.42256 9.15946 2.42165 9.26506C2.42073 9.37067 2.46133 9.47241 2.53469 9.54837ZM2.53469 13.5761L3.34024 14.3816C3.37761 14.4191 3.42199 14.4488 3.47086 14.469C3.51972 14.4893 3.5721 14.4997 3.62499 14.4997C3.67789 14.4997 3.73027 14.4893 3.77913 14.469C3.82799 14.4488 3.87238 14.4191 3.90975 14.3816L5.52124 12.7705C5.59461 12.6946 5.63521 12.5928 5.63429 12.4872C5.63337 12.3816 5.59101 12.2806 5.51633 12.2059C5.44166 12.1312 5.34064 12.0889 5.23503 12.088C5.12943 12.0871 5.02769 12.1277 4.95172 12.201L3.62499 13.5273L3.10421 13.0066C3.02825 12.9332 2.92651 12.8926 2.8209 12.8935C2.7153 12.8944 2.61428 12.9368 2.5396 13.0115C2.46492 13.0861 2.42256 13.1872 2.42165 13.2928C2.42073 13.3984 2.46133 13.5001 2.53469 13.5761ZM6.84716 8.86084H12.486C12.5928 8.86084 12.6952 8.81841 12.7708 8.74287C12.8463 8.66734 12.8887 8.56489 12.8887 8.45807C12.8887 8.35125 12.8463 8.2488 12.7708 8.17327C12.6952 8.09773 12.5928 8.0553 12.486 8.0553H6.84716C6.74034 8.0553 6.63789 8.09773 6.56236 8.17327C6.48683 8.2488 6.44439 8.35125 6.44439 8.45807C6.44439 8.56489 6.48683 8.66734 6.56236 8.74287C6.63789 8.81841 6.74034 8.86084 6.84716 8.86084ZM6.84716 10.4719H10.0697C10.1766 10.4719 10.279 10.4295 10.3545 10.354C10.4301 10.2784 10.4725 10.176 10.4725 10.0692C10.4725 9.96233 10.4301 9.85989 10.3545 9.78435C10.279 9.70882 10.1766 9.66638 10.0697 9.66638H6.84716C6.74034 9.66638 6.63789 9.70882 6.56236 9.78435C6.48683 9.85989 6.44439 9.96233 6.44439 10.0692C6.44439 10.176 6.48683 10.2784 6.56236 10.354C6.63789 10.4295 6.74034 10.4719 6.84716 10.4719ZM12.0763 14.3941L13.2154 15.5331C13.2909 15.6087 13.3933 15.6511 13.5001 15.6511C13.6069 15.6511 13.7094 15.6087 13.7849 15.5331L16.063 13.2551C16.1363 13.1791 16.1769 13.0774 16.176 12.9718C16.1751 12.8662 16.1327 12.7651 16.0581 12.6905C15.9834 12.6158 15.8824 12.5734 15.7768 12.5725C15.6712 12.5716 15.5694 12.6122 15.4934 12.6856L13.5001 14.6789L12.6459 13.8246C12.5699 13.7512 12.4682 13.7106 12.3625 13.7115C12.2569 13.7125 12.1559 13.7548 12.0812 13.8295C12.0066 13.9042 11.9642 14.0052 11.9633 14.1108C11.9624 14.2164 12.003 14.3181 12.0763 14.3941ZM6.84716 12.8886H8.45865C8.56547 12.8886 8.66792 12.8461 8.74345 12.7706C8.81899 12.695 8.86142 12.5926 8.86142 12.4858C8.86142 12.379 8.81899 12.2765 8.74345 12.201C8.66792 12.1254 8.56547 12.083 8.45865 12.083H6.84716C6.74034 12.083 6.63789 12.1254 6.56236 12.201C6.48683 12.2765 6.44439 12.379 6.44439 12.4858C6.44439 12.5926 6.48683 12.695 6.56236 12.7706C6.63789 12.8461 6.74034 12.8886 6.84716 12.8886ZM6.84716 14.4996H8.45865C8.56547 14.4996 8.66792 14.4572 8.74345 14.3817C8.81899 14.3061 8.86142 14.2037 8.86142 14.0969C8.86142 13.99 8.81899 13.8876 8.74345 13.8121C8.66792 13.7365 8.56547 13.6941 8.45865 13.6941H6.84716C6.74034 13.6941 6.63789 13.7365 6.56236 13.8121C6.48683 13.8876 6.44439 13.99 6.44439 14.0969C6.44439 14.2037 6.48683 14.3061 6.56236 14.3817C6.63789 14.4572 6.74034 14.4996 6.84716 14.4996Z" fill="#153F68"/>
<path fill-rule="evenodd" clip-rule="evenodd" d="M14.0974 18.5275H2.01385C1.47975 18.5275 0.967516 18.3153 0.589844 17.9376C0.212173 17.5599 0 17.0477 0 16.5136V2.01385C0 1.47975 0.212173 0.967516 0.589844 0.589844C0.967516 0.212173 1.47975 0 2.01385 0H10.2078C10.7419 0 11.2542 0.21226 11.632 0.589657L14.7156 3.67367C15.0931 4.05137 15.3052 4.56348 15.3053 5.09747V9.83365C17.1641 10.3597 18.5279 12.0702 18.5279 14.097C18.5279 16.5422 16.5426 18.5275 14.0974 18.5275ZM14.4998 9.68463V5.09747C14.4998 5.00805 14.4897 4.91945 14.4704 4.83325H12.4863C11.9522 4.83325 11.44 4.62108 11.0623 4.24341C10.6846 3.86574 10.4724 3.3535 10.4724 2.8194V0.834944C10.3856 0.815227 10.2969 0.805364 10.2078 0.805542H2.01385C1.69339 0.805542 1.38605 0.932846 1.15945 1.15945C0.932846 1.38605 0.805542 1.69339 0.805542 2.01385V16.5136C0.805542 16.8341 0.932846 17.1414 1.15945 17.368C1.38605 17.5946 1.69339 17.7219 2.01385 17.7219H11.5511C10.9689 17.3136 10.4936 16.7709 10.1656 16.1399C9.83766 15.5089 9.66658 14.8081 9.66691 14.097C9.66691 11.6518 11.6522 9.6665 14.0974 9.6665C14.2331 9.6665 14.3672 9.67255 14.4998 9.68463ZM14.0974 10.472C16.098 10.472 17.7223 12.0964 17.7223 14.097C17.7223 16.0975 16.098 17.7219 14.0974 17.7219C12.0968 17.7219 10.4724 16.0975 10.4724 14.097C10.4724 12.0964 12.0968 10.472 14.0974 10.472ZM11.278 1.37506V2.8194C11.278 3.13986 11.4053 3.4472 11.6319 3.6738C11.8585 3.90041 12.1658 4.02771 12.4863 4.02771H13.9302L11.278 1.37506Z" fill="#153F68"/>
</svg>
