<svg width="20" height="20" viewBox="0 0 20 20" fill="none" xmlns="http://www.w3.org/2000/svg">
<path d="M7.49915 5.354C7.51843 5.354 7.54763 5.35693 7.58704 5.36768L7.67981 5.40771L14.4513 9.70654V9.70752C14.5095 9.74632 14.5419 9.78628 14.5626 9.82764C14.5906 9.88356 14.6036 9.93887 14.6036 9.99951C14.6036 10.0603 14.5906 10.1163 14.5626 10.1724C14.5422 10.213 14.5097 10.2514 14.4532 10.2896L7.67493 14.5942C7.64548 14.6114 7.61665 14.6242 7.58704 14.6323C7.54762 14.6431 7.51843 14.646 7.49915 14.646C7.41143 14.6459 7.33932 14.6197 7.26184 14.5454C7.19607 14.4824 7.16614 14.4153 7.16614 14.312V5.68701C7.1662 5.58396 7.19624 5.51751 7.26184 5.45459C7.33932 5.38033 7.41142 5.35407 7.49915 5.354Z" stroke="#153F68"/>
</svg>
