<svg width="21" height="19" viewBox="0 0 21 19" fill="none" xmlns="http://www.w3.org/2000/svg">
<path d="M13.5719 7.6824C13.5719 8.00061 13.3139 8.25859 12.9957 8.25859H8.00198C7.68376 8.25859 7.42578 8.00061 7.42578 7.6824C7.42578 7.36417 7.68376 7.1062 8.00198 7.1062H12.9957C13.3139 7.1062 13.5719 7.36417 13.5719 7.6824Z" fill="#153F68"/>
<path d="M12.0353 10.7551C12.0353 11.0734 11.7774 11.3313 11.4591 11.3313H8.00198C7.68375 11.3313 7.42578 11.0734 7.42578 10.7551C7.42578 10.4369 7.68375 10.179 8.00198 10.179H11.4591C11.7774 10.179 12.0353 10.4369 12.0353 10.7551Z" fill="#153F68"/>
<path fill-rule="evenodd" clip-rule="evenodd" d="M8.96283 0.767822C8.11423 0.767822 7.42631 1.45574 7.42631 2.30434H5.88979C5.04119 2.30434 4.35327 2.99226 4.35327 3.84086V15.3647C4.35327 16.2134 5.04119 16.9013 5.88979 16.9013H15.1089C15.9575 16.9013 16.6454 16.2134 16.6454 15.3647V3.84086C16.6454 2.99226 15.9575 2.30434 15.1089 2.30434H13.5724C13.5724 1.45574 12.8845 0.767822 12.0359 0.767822H8.96283ZM12.42 2.30434C12.42 2.09219 12.248 1.92021 12.0359 1.92021H8.96283C8.75068 1.92021 8.5787 2.09219 8.5787 2.30434V3.45673C8.5787 3.66888 8.75068 3.84086 8.96283 3.84086H12.0359C12.248 3.84086 12.42 3.66888 12.42 3.45673V2.30434ZM13.5724 3.45673C13.5724 4.30532 12.8845 4.99325 12.0359 4.99325H8.96283C8.11423 4.99325 7.42631 4.30532 7.42631 3.45673H5.88979C5.67764 3.45673 5.50566 3.62871 5.50566 3.84086V15.3647C5.50566 15.5769 5.67764 15.7489 5.88979 15.7489H15.1089C15.321 15.7489 15.493 15.5769 15.493 15.3647V3.84086C15.493 3.62871 15.321 3.45673 15.1089 3.45673H13.5724Z" fill="#153F68"/>
</svg>
