<svg width="14" height="14" viewBox="0 0 14 14" fill="none" xmlns="http://www.w3.org/2000/svg">
<path fill-rule="evenodd" clip-rule="evenodd" d="M6.87194 0C10.6646 0 13.7437 3.07916 13.7437 6.87194C13.7437 10.6646 10.6646 13.7437 6.87194 13.7437C3.07916 13.7437 0 10.6646 0 6.87194C0 3.07916 3.07916 0 6.87194 0ZM6.87194 1.05717C3.66274 1.05717 1.05717 3.66274 1.05717 6.87194C1.05717 10.0811 3.66274 12.6866 6.87194 12.6866C10.0811 12.6866 12.6866 10.0811 12.6866 6.87194C12.6866 3.66274 10.0811 1.05717 6.87194 1.05717ZM7.40046 10.5721C7.40046 10.8639 7.1636 11.1007 6.87194 11.1007C6.73175 11.1007 6.59732 11.045 6.4982 10.9458C6.39907 10.8467 6.34335 10.7123 6.34329 10.5721V5.28611C6.34329 4.99432 6.58014 4.75746 6.87194 4.75746C7.0121 4.75757 7.14649 4.8133 7.24559 4.91242C7.34469 5.01154 7.40039 5.14595 7.40046 5.28611V10.5721ZM7.40046 3.70029C7.40039 3.84044 7.34469 3.97484 7.24558 4.07394C7.14648 4.17304 7.01209 4.22875 6.87194 4.22882C6.73177 4.22875 6.59737 4.17305 6.49824 4.07395C6.39912 3.97485 6.34339 3.84046 6.34329 3.70029V3.17164C6.34329 2.87985 6.58014 2.64299 6.87194 2.64299C7.0121 2.64309 7.14649 2.69883 7.24559 2.79795C7.34469 2.89707 7.40039 3.03148 7.40046 3.17164V3.70029Z" fill="black"/>
</svg>
